<svg width="46" height="40" viewBox="0 0 46 40" fill="none" xmlns="http://www.w3.org/2000/svg">
<path d="M45.7925 26.9627C45.7925 33.8824 40.1829 39.4919 33.2632 39.4919L14.4694 39.4919C12.5472 39.4919 10.989 37.9337 10.989 36.0116L10.989 12.3452C10.989 8.50094 14.1054 5.38454 17.9497 5.38454L42.3121 5.38454C44.2343 5.38454 45.7925 6.94275 45.7925 8.86489L45.7925 26.9627Z" fill="#E8F5E9"/>
<path d="M19.2836 13.7447C19.0665 13.7447 18.8899 13.5684 18.8899 13.351V12.6818C18.8899 12.4646 19.0662 12.2881 19.2836 12.2881C19.5008 12.2881 19.6774 12.4644 19.6774 12.6818V13.351C19.6774 13.5684 19.5008 13.7447 19.2836 13.7447Z" fill="#103E13"/>
<path d="M17.6281 13.7447C17.4109 13.7447 17.2344 13.5684 17.2344 13.351V12.6818C17.2344 12.4646 17.4107 12.2881 17.6281 12.2881C17.8453 12.2881 18.0219 12.4644 18.0219 12.6818V13.351C18.0216 13.5684 17.8456 13.7447 17.6281 13.7447Z" fill="#103E13"/>
<path d="M15.9729 13.7447C15.7557 13.7447 15.5791 13.5684 15.5791 13.351V12.6818C15.5791 12.4646 15.7554 12.2881 15.9729 12.2881C16.19 12.2881 16.3666 12.4644 16.3666 12.6818V13.351C16.3666 13.5684 16.1903 13.7447 15.9729 13.7447Z" fill="#103E13"/>
<path d="M19.2836 16.4813C19.0665 16.4813 18.8899 16.305 18.8899 16.0875V15.4186C18.8899 15.2015 19.0662 15.0249 19.2836 15.0249C19.5008 15.0249 19.6774 15.2012 19.6774 15.4186V16.0875C19.6774 16.305 19.5008 16.4813 19.2836 16.4813Z" fill="#103E13"/>
<path d="M17.6281 16.4813C17.4109 16.4813 17.2344 16.305 17.2344 16.0875V15.4186C17.2344 15.2015 17.4107 15.0249 17.6281 15.0249C17.8453 15.0249 18.0219 15.2012 18.0219 15.4186V16.0875C18.0216 16.305 17.8456 16.4813 17.6281 16.4813Z" fill="#103E13"/>
<path d="M15.9729 16.4813C15.7557 16.4813 15.5791 16.305 15.5791 16.0875V15.4186C15.5791 15.2015 15.7554 15.0249 15.9729 15.0249C16.19 15.0249 16.3666 15.2012 16.3666 15.4186V16.0875C16.3666 16.305 16.1903 16.4813 15.9729 16.4813Z" fill="#103E13"/>
<path d="M19.2836 19.2176C19.0665 19.2176 18.8899 19.0413 18.8899 18.8239V18.1547C18.8899 17.9375 19.0662 17.761 19.2836 17.761C19.5008 17.761 19.6774 17.9373 19.6774 18.1547V18.8239C19.6774 19.0413 19.5008 19.2176 19.2836 19.2176Z" fill="#103E13"/>
<path d="M17.6281 19.2176C17.4109 19.2176 17.2344 19.0413 17.2344 18.8239V18.1547C17.2344 17.9375 17.4107 17.761 17.6281 17.761C17.8453 17.761 18.0219 17.9373 18.0219 18.1547V18.8239C18.0216 19.0413 17.8456 19.2176 17.6281 19.2176Z" fill="#103E13"/>
<path d="M15.9729 19.2176C15.7557 19.2176 15.5791 19.0413 15.5791 18.8239V18.1547C15.5791 17.9375 15.7554 17.761 15.9729 17.761C16.19 17.761 16.3666 17.9373 16.3666 18.1547V18.8239C16.3666 19.0413 16.1903 19.2176 15.9729 19.2176Z" fill="#103E13"/>
<path d="M19.2836 21.9535C19.0665 21.9535 18.8899 21.7772 18.8899 21.5597V20.8906C18.8899 20.6734 19.0662 20.4968 19.2836 20.4968C19.5008 20.4968 19.6774 20.6731 19.6774 20.8906V21.5597C19.6774 21.7772 19.5008 21.9535 19.2836 21.9535Z" fill="#103E13"/>
<path d="M17.6281 21.9535C17.4109 21.9535 17.2344 21.7772 17.2344 21.5597V20.8906C17.2344 20.6734 17.4107 20.4968 17.6281 20.4968C17.8453 20.4968 18.0219 20.6731 18.0219 20.8906V21.5597C18.0216 21.7772 17.8456 21.9535 17.6281 21.9535Z" fill="#103E13"/>
<path d="M15.9729 21.9535C15.7557 21.9535 15.5791 21.7772 15.5791 21.5597V20.8906C15.5791 20.6734 15.7554 20.4968 15.9729 20.4968C16.19 20.4968 16.3666 20.6731 16.3666 20.8906V21.5597C16.3666 21.7772 16.1903 21.9535 15.9729 21.9535Z" fill="#103E13"/>
<path d="M19.2836 24.69C19.0665 24.69 18.8899 24.5137 18.8899 24.2963V23.6274C18.8899 23.4102 19.0662 23.2336 19.2836 23.2336C19.5008 23.2336 19.6774 23.4099 19.6774 23.6274V24.2963C19.6774 24.5135 19.5008 24.69 19.2836 24.69Z" fill="#103E13"/>
<path d="M17.6281 24.69C17.4109 24.69 17.2344 24.5137 17.2344 24.2963V23.6274C17.2344 23.4102 17.4107 23.2336 17.6281 23.2336C17.8453 23.2336 18.0219 23.4099 18.0219 23.6274V24.2963C18.0216 24.5135 17.8456 24.69 17.6281 24.69Z" fill="#103E13"/>
<path d="M15.9729 24.69C15.7557 24.69 15.5791 24.5137 15.5791 24.2963L15.5794 23.6274C15.5794 23.4102 15.7557 23.2336 15.9731 23.2336C16.1903 23.2336 16.3669 23.4099 16.3669 23.6274V24.2963C16.3666 24.5135 16.1903 24.69 15.9729 24.69Z" fill="#103E13"/>
<path d="M4.7247 27.4131C4.7247 27.6303 4.90097 27.8068 5.11844 27.8068H29.0965C29.3137 27.8068 29.4902 27.6305 29.4902 27.4131C29.4902 27.1959 29.3139 27.0193 29.0965 27.0193H28.3686V15.7143C28.3686 15.4971 28.1923 15.3205 27.9749 15.3205L21.5462 15.3208V7.17042C21.5462 7.03259 21.4742 6.90518 21.3567 6.83379C21.2394 6.76212 21.0928 6.75773 20.9709 6.82116L13.6619 10.6266C13.5315 10.6944 13.4502 10.8289 13.4502 10.9758V18.095H6.37675C6.15956 18.095 5.983 18.2713 5.983 18.4888V27.0194H5.11757C4.90038 27.0191 4.72437 27.1954 4.72437 27.4129L4.7247 27.4131ZM21.5463 21.2842H27.5815V27.0197L21.5463 27.0194V21.2842ZM21.5463 18.5481H27.5815V20.497L21.5463 20.4968V18.5481ZM21.5463 16.1079H27.5815V17.7611H21.5463V16.1079ZM14.2373 11.2149L20.7585 7.81945V27.019H14.2373V11.2149ZM8.71693 23.8745C8.71693 23.0574 9.36439 22.3923 10.1604 22.3923C10.9564 22.3923 11.6041 23.0571 11.6041 23.8745V27.0195H8.71693V23.8745ZM6.77048 18.8824H13.4501V27.0194H12.3916V23.8744C12.3916 22.6231 11.3911 21.605 10.1604 21.605C8.93027 21.605 7.92973 22.6228 7.92973 23.8744V27.0194H6.77048V18.8824Z" fill="#103E13"/>
</svg>
