<svg width="46" height="40" viewBox="0 0 46 40" fill="none" xmlns="http://www.w3.org/2000/svg">
<path d="M45.9187 26.9627C45.9187 33.8824 40.3092 39.4919 33.3894 39.4919L14.5956 39.4919C12.6734 39.4919 11.1152 37.9337 11.1152 36.0116L11.1152 12.3452C11.1152 8.50094 14.2316 5.38454 18.0759 5.38454L42.4384 5.38454C44.3605 5.38454 45.9187 6.94275 45.9187 8.86489L45.9187 26.9627Z" fill="#E8F5E9"/>
<path d="M17.3728 7.47266C14.8869 7.47266 12.8632 9.51484 12.8632 12.0113C12.8632 13.5905 13.6742 14.985 14.8988 15.7978C13.4197 16.2923 12.1399 17.2166 11.2013 18.4258C10.6823 18.0266 10.1024 17.7056 9.47729 17.4755C10.4252 16.7718 11.0447 15.6413 11.0447 14.3707C11.0447 12.2534 9.33233 10.5202 7.22789 10.5202C5.12346 10.5202 3.41107 12.2534 3.41107 14.3707C3.41107 15.642 4.03106 16.773 4.97981 17.4768C2.46799 18.4037 0.674072 20.8304 0.674072 23.6864V25.6926C0.674329 25.8455 0.735505 25.992 0.843975 26.0997C0.952444 26.2077 1.09922 26.2678 1.25216 26.2673H10.0539C10.0753 26.2696 10.0966 26.2709 10.1179 26.2707H24.6281C24.6494 26.2709 24.671 26.2696 24.6921 26.2673H33.4945C33.8109 26.266 34.0672 26.0093 34.068 25.6926V23.6864C34.068 20.8304 32.2772 18.4037 29.7667 17.4765C30.7154 16.773 31.3354 15.6417 31.3354 14.3704C31.3354 12.2532 29.623 10.5199 27.5186 10.5199C25.4142 10.5199 23.7017 12.2532 23.7017 14.3704C23.7017 15.641 24.3215 16.7717 25.2694 17.4753C24.643 17.7058 24.0629 18.0279 23.5432 18.4281C22.605 17.2182 21.3269 16.2926 19.8479 15.7978C21.0722 14.985 21.8835 13.5905 21.8835 12.0113C21.8835 9.51484 19.8587 7.47266 17.3729 7.47266H17.3728ZM17.3728 8.6242C19.232 8.6242 20.7307 10.1331 20.7307 12.0113C20.7307 13.8748 19.2553 15.369 17.4167 15.3929C17.4021 15.3929 17.3877 15.3909 17.3728 15.3909C17.3579 15.3909 17.3437 15.3929 17.3288 15.3929C15.4902 15.3693 14.0158 13.8749 14.0158 12.0113C14.0158 10.1328 15.5133 8.6242 17.3725 8.6242H17.3728ZM7.22796 11.6717C8.70312 11.6717 9.89323 12.8689 9.89323 14.3706C9.89323 15.8622 8.71852 17.0544 7.25724 17.0706C7.24747 17.0706 7.23796 17.0695 7.22794 17.0695C7.21817 17.0695 7.20866 17.0706 7.19864 17.0706C5.73735 17.0544 4.56264 15.862 4.56264 14.3706C4.56264 12.869 5.75275 11.6717 7.22792 11.6717H7.22796ZM27.5182 11.6717C28.9934 11.6717 30.1835 12.8689 30.1835 14.3706C30.1835 15.8622 29.0088 17.0544 27.5475 17.0706C27.5377 17.0706 27.5282 17.0695 27.5182 17.0695C27.5084 17.0695 27.4989 17.0706 27.4889 17.0706C26.0276 17.0544 24.8529 15.862 24.8529 14.3706C24.8529 12.869 26.043 11.6717 27.5182 11.6717H27.5182ZM17.3287 16.5444C17.3433 16.5447 17.3577 16.5465 17.3726 16.5465C17.3873 16.5465 17.4017 16.5444 17.4166 16.5444C21.1038 16.5681 24.0548 19.5444 24.0548 23.2701L24.0545 25.1188H10.6913V23.2701C10.6913 19.544 13.6414 16.5681 17.3282 16.5444H17.3287ZM7.18387 18.2234C7.19852 18.2237 7.21292 18.2255 7.22782 18.2255C7.24273 18.2255 7.25687 18.2234 7.27178 18.2234C8.51894 18.2335 9.65713 18.6635 10.5634 19.3829C9.91491 20.5304 9.53987 21.8549 9.53987 23.2704V25.1147H1.82516V23.6863C1.82516 20.6583 4.2059 18.2471 7.18373 18.2232L7.18387 18.2234ZM27.4741 18.2234C27.489 18.2237 27.5032 18.2255 27.5181 18.2255C27.533 18.2255 27.5471 18.2234 27.562 18.2234C30.5399 18.2471 32.9206 20.6587 32.9206 23.6866V25.1147H25.202L25.2017 23.2704C25.2017 21.8557 24.8277 20.5322 24.1805 19.385C25.087 18.6645 26.226 18.2334 27.4742 18.2234H27.4741Z" fill="#103E13"/>
</svg>
