<svg width="46" height="40" viewBox="0 0 46 40" fill="none" xmlns="http://www.w3.org/2000/svg">
<path d="M45.6658 26.9627C45.6658 33.8824 40.0562 39.4919 33.1365 39.4919L14.3426 39.4919C12.4205 39.4919 10.8623 37.9337 10.8623 36.0116L10.8623 12.3452C10.8623 8.50094 13.9787 5.38454 17.823 5.38454L42.1854 5.38454C44.1076 5.38454 45.6658 6.94275 45.6658 8.86489L45.6658 26.9627Z" fill="#E8F5E9"/>
<path d="M20.128 16.9702C19.9604 16.9702 19.8048 16.9242 19.6666 16.85V16.852C19.6666 17.1157 19.5641 17.3634 19.3781 17.5488C19.1921 17.7348 18.9447 17.8373 18.6813 17.8373C18.5112 17.8373 18.3536 17.7901 18.2139 17.714C18.1998 17.9552 18.1034 18.1807 17.9313 18.3529C17.7454 18.5389 17.4979 18.6414 17.2343 18.6414C16.7107 18.6414 16.2855 18.2297 16.2548 17.7138C16.0928 17.8014 15.9096 17.8473 15.7207 17.8352C15.2056 17.8014 14.8022 17.3563 14.8022 16.8217V12.39L14.2975 13.2643C14.1053 13.5987 13.7456 13.8063 13.3582 13.8063C13.1694 13.8063 12.983 13.7567 12.8178 13.6621C12.6122 13.5429 12.4651 13.3515 12.4039 13.1226C12.3424 12.8935 12.3742 12.6539 12.4931 12.4485C12.4933 12.4485 14.1442 9.58964 14.2449 9.41403C14.2569 9.38763 14.291 9.31105 14.32 9.24578C14.3477 9.18346 14.3715 9.1195 14.3943 9.05522C14.8922 7.64966 16.1249 6.77655 17.6117 6.77655C19.5424 6.77655 21.1131 8.47977 21.1131 10.5733L21.1132 15.9848C21.1132 16.2482 21.0109 16.4957 20.8251 16.6818C20.6391 16.8678 20.3917 16.9703 20.128 16.9703L20.128 16.9702ZM17.6117 7.3001C16.3342 7.3001 15.316 8.02169 14.8878 9.23031C14.8604 9.30705 14.8319 9.3838 14.7986 9.45858C14.702 9.67522 14.702 9.67522 14.6748 9.70638L14.6712 9.70326C14.5364 9.95761 14.1359 10.6511 12.9464 12.7106C12.8976 12.795 12.8846 12.8931 12.9095 12.9869C12.9348 13.0807 12.9953 13.1597 13.0791 13.2081C13.3392 13.3575 13.6954 13.2611 13.8436 13.0028L14.8373 11.2825C14.8966 11.18 15.0167 11.1297 15.1318 11.1608C15.2463 11.1915 15.3258 11.2953 15.3258 11.4137V16.8218C15.3258 17.077 15.5183 17.2972 15.755 17.3128C15.8914 17.32 16.0187 17.2743 16.1143 17.1788C16.2012 17.0919 16.2491 16.9761 16.2491 16.8523V13.3153C16.2491 13.1707 16.3664 13.0534 16.511 13.0534C16.6556 13.0534 16.7729 13.1705 16.7729 13.3153L16.7727 17.6563C16.7727 17.9108 16.9799 18.1179 17.2344 18.1179C17.358 18.1179 17.4741 18.07 17.5612 17.9831C17.6481 17.896 17.696 17.7799 17.696 17.6563V13.3153C17.696 13.1707 17.8131 13.0534 17.9579 13.0534C18.1025 13.0534 18.2198 13.1705 18.2198 13.3153L18.2196 16.8116V16.8523C18.2196 17.1067 18.4268 17.3138 18.6814 17.3138C18.8049 17.3138 18.9207 17.2657 19.0083 17.1785C19.0952 17.0917 19.1431 16.9759 19.1431 16.8521V13.3151C19.1431 13.1705 19.2602 13.0532 19.405 13.0532C19.5496 13.0532 19.6669 13.1703 19.6669 13.3151L19.6665 15.9849C19.6665 16.2396 19.8737 16.4467 20.128 16.4467C20.2518 16.4467 20.3676 16.3987 20.4545 16.3119C20.5418 16.2247 20.5895 16.1086 20.5895 15.9849L20.5896 10.5735C20.5896 8.76873 19.2538 7.30015 17.6117 7.30015L17.6117 7.3001Z" fill="#103E13"/>
<path d="M9.83834 20.7314L13.6387 18.4516C14.0969 18.1764 14.6864 18.2933 14.9803 18.7179C15.0876 18.8726 15.1423 19.0528 15.1509 19.2363C15.2925 19.1623 15.4467 19.1222 15.6036 19.1222C15.684 19.1222 15.7647 19.1322 15.8444 19.152C16.0997 19.2158 16.3149 19.3754 16.4502 19.601C16.5856 19.827 16.6252 20.0918 16.5614 20.3469C16.5025 20.5828 16.359 20.7815 16.1594 20.9177C16.299 21.0001 16.4193 21.1124 16.505 21.2554C16.6404 21.4814 16.6799 21.7461 16.6163 22.0014C16.5525 22.2564 16.3929 22.4716 16.167 22.6072L16.1657 22.608C16.3028 22.6902 16.421 22.8014 16.5056 22.9422C16.6412 23.1682 16.6808 23.4331 16.617 23.6884C16.553 23.9436 16.3934 24.1587 16.1678 24.2942L11.5275 27.078C10.6615 27.5973 9.66028 27.7766 8.7088 27.5823C7.7488 27.3861 6.95374 26.8343 6.47032 26.0284C5.70528 24.7534 5.81993 23.247 6.76895 22.0972C6.81241 22.0447 6.85521 21.9913 6.89408 21.9358C6.93524 21.8773 6.98329 21.8084 6.99969 21.7848C7.09792 21.6093 8.7008 18.7214 8.70063 18.7217C8.86249 18.4297 9.16588 18.2643 9.47877 18.2645C9.62472 18.2645 9.77281 18.3004 9.90942 18.3762C10.0744 18.4683 10.213 18.6027 10.3099 18.7645C10.5091 19.0966 10.5162 19.5122 10.3286 19.8485L9.83834 20.7314ZM9.86114 19.0337C9.8103 18.949 9.74044 18.8814 9.655 18.8335C9.47838 18.7358 9.25601 18.7994 9.15877 18.9754C8.01182 21.0417 7.62084 21.7458 7.46996 21.9964L7.4734 21.9973C7.46077 22.0392 7.46077 22.0392 7.32269 22.2365C7.27579 22.3033 7.22479 22.3674 7.17281 22.4305C6.35676 23.4192 6.262 24.6635 6.91911 25.7591C7.32614 26.4377 7.99884 26.9029 8.81338 27.0692C9.63678 27.2366 10.5046 27.0809 11.2579 26.6289L15.8986 23.845C16.0045 23.7815 16.0793 23.6807 16.1091 23.5611C16.139 23.4417 16.1205 23.3176 16.0568 23.2116C15.926 22.9935 15.6418 22.9219 15.4236 23.0532L13.1343 24.4267C13.0103 24.5011 12.8493 24.4611 12.775 24.337C12.7006 24.213 12.7407 24.0521 12.8647 23.9777L15.1542 22.6042L15.8978 22.1582C16.0037 22.0945 16.0786 21.9937 16.1085 21.8745C16.1383 21.7549 16.1198 21.6306 16.0562 21.5248C15.9251 21.3066 15.6409 21.2355 15.423 21.3664L12.39 23.1859C12.2657 23.2605 12.1051 23.2202 12.0307 23.0962C11.9562 22.9722 11.9965 22.8114 12.1204 22.7369L15.8428 20.5038C15.9488 20.4402 16.0235 20.3395 16.0534 20.22C16.0832 20.1006 16.0647 19.9764 16.0012 19.8705C15.9378 19.7647 15.8369 19.6899 15.7174 19.6601C15.5972 19.6302 15.4735 19.6488 15.3679 19.7121L14.6788 20.1255C14.6786 20.1255 14.6786 20.1257 14.6785 20.1257H14.6783L11.6454 21.9452C11.5211 22.02 11.3604 21.9796 11.2861 21.8555C11.2117 21.7315 11.252 21.5706 11.3758 21.4962L14.4089 19.6767C14.5148 19.613 14.5898 19.5122 14.6196 19.393C14.6524 19.2621 14.6275 19.1283 14.5497 19.0161C14.4149 18.8211 14.1266 18.7693 13.908 18.9006L9.27071 21.6826C9.16919 21.7433 9.03915 21.7285 8.95404 21.6464C8.86876 21.5641 8.84957 21.4347 8.90697 21.3312L9.87126 19.5939C9.96801 19.4202 9.96424 19.2057 9.86109 19.0338L9.86114 19.0337Z" fill="#103E13"/>
<path d="M27.998 26.0283C27.5147 26.8343 26.7199 27.386 25.7597 27.5822C24.8081 27.7762 23.8072 27.5973 22.941 27.0779L18.3003 24.294C18.0745 24.1585 17.9148 23.9433 17.8508 23.6878C17.7873 23.4328 17.827 23.168 17.9623 22.9423C18.0468 22.8013 18.1652 22.6901 18.3024 22.6079L18.3011 22.6071C18.0753 22.4717 17.9156 22.2565 17.852 22.0013C17.788 21.7461 17.8277 21.4811 17.9631 21.2552C18.0504 21.11 18.1699 20.9965 18.3064 20.916C18.1083 20.7798 17.9656 20.5818 17.9069 20.347C17.8429 20.0916 17.8826 19.8268 18.0181 19.6011C18.1534 19.3753 18.3687 19.2157 18.6239 19.1519C18.7036 19.1319 18.7844 19.1221 18.8645 19.1221C19.0216 19.1223 19.1757 19.1621 19.3174 19.2362C19.3261 19.0527 19.3807 18.8725 19.488 18.7178C19.782 18.2936 20.371 18.1762 20.8299 18.4515L24.6301 20.731L24.1403 19.8487C23.9523 19.5119 23.9592 19.0963 24.1585 18.7641C24.2556 18.6024 24.3943 18.4681 24.5601 18.3751C24.6964 18.2996 24.844 18.2639 24.9896 18.2639C25.3023 18.2641 25.606 18.429 25.7677 18.7211C26.3312 19.7364 27.3945 21.6512 27.4693 21.7849C27.4852 21.808 27.5332 21.8769 27.5744 21.9354C27.6136 21.991 27.6559 22.0441 27.6997 22.0969C28.6486 23.2472 28.763 24.7534 27.998 26.0283L27.998 26.0283ZM27.2957 22.4307C27.2435 22.3675 27.1924 22.3031 27.1458 22.2367C27.0041 22.0356 27.0005 22.0304 26.9898 21.9777C26.8242 21.7037 26.4201 20.9762 25.3094 18.9752C25.212 18.7995 24.9906 18.7354 24.8143 18.8328C24.7276 18.8814 24.6579 18.9491 24.607 19.0339C24.504 19.2056 24.5001 19.4201 24.5974 19.5943L25.5613 21.3311C25.6189 21.4347 25.5997 21.564 25.5146 21.6463C25.4296 21.7288 25.2997 21.7432 25.1977 21.6825L20.5604 18.9005C20.3418 18.7695 20.0537 18.8209 19.9185 19.016C19.8408 19.1282 19.816 19.262 19.8485 19.3927C19.8784 19.5121 19.9533 19.6128 20.0594 19.6764C20.0597 19.6766 20.0599 19.6769 20.0602 19.6771L23.0923 21.4961C23.2163 21.5705 23.2564 21.7312 23.182 21.8554C23.1075 21.9792 22.947 22.0197 22.8227 21.9451L19.1002 19.712C18.9946 19.6487 18.8703 19.63 18.7509 19.66C18.6312 19.6899 18.5305 19.7646 18.467 19.8707C18.4034 19.9765 18.385 20.1007 18.4146 20.22C18.4444 20.3394 18.5194 20.4403 18.6253 20.5039L19.3497 20.9383L22.3476 22.737C22.4716 22.8115 22.5118 22.9722 22.4373 23.0963C22.3628 23.2201 22.2023 23.2605 22.078 23.186L19.0453 21.3665C18.8272 21.2353 18.5431 21.3065 18.4119 21.5249C18.3483 21.6309 18.33 21.755 18.3595 21.8744C18.3893 21.9938 18.4643 22.0945 18.5704 22.1583L19.3139 22.6043L21.6031 23.9778C21.727 24.0522 21.7672 24.213 21.6928 24.3371C21.6183 24.4609 21.4578 24.5016 21.3335 24.4268L19.0443 23.0534C18.9387 22.9901 18.8149 22.9714 18.6948 23.0014C18.5754 23.0312 18.4744 23.106 18.411 23.2118C18.3475 23.3177 18.329 23.442 18.3585 23.5612C18.3883 23.6806 18.4633 23.7813 18.5694 23.8451L23.2101 26.629C23.9632 27.0808 24.8316 27.2373 25.6546 27.0693C26.4689 26.903 27.1417 26.4378 27.5487 25.7592C28.2064 24.6634 28.1118 23.419 27.296 22.4306L27.2957 22.4307Z" fill="#103E13"/>
</svg>
