<svg width="108" height="17" viewBox="0 0 108 17" fill="none" xmlns="http://www.w3.org/2000/svg">
<path d="M13.0765 9.14228L9.32402 15.569L5.57158 9.14228H13.0765ZM14.0818 8.56787H4.56226L9.32402 16.7058L14.0818 8.56787Z" fill="#263238"/>
<path d="M19.6007 1.14878L23.3531 7.57551H15.8482L19.6007 1.14878ZM19.6007 0L14.8389 8.13785H24.3624L19.6007 0Z" fill="#263238"/>
<path d="M0 0L3.99259 7.19795L8.35551 0.180742L0 0Z" fill="#4CAF4F"/>
<path d="M9.32425 0.630371L13.5122 7.78816H5.12817L9.32425 0.630371Z" fill="#4CAF4F"/>
<path d="M14.5906 9.35107L18.7827 16.7057H10.1992L14.4604 9.35107H14.5906Z" fill="#4CAF4F"/>
<path d="M15.4983 8.90503L19.6007 16.1472L23.7602 8.90503H15.4983Z" fill="#4CAF4F"/>
<path d="M41.7868 1.16162V15.3361H39.1983L33.0316 6.41477H32.9278V15.3361H29.9309V1.16162H32.5609L38.6792 10.0761H38.8038V1.16162H41.7868Z" fill="#263238"/>
<path d="M49.0523 15.5438C47.9588 15.5438 47.0175 15.3223 46.2285 14.8793C45.4441 14.4318 44.8396 13.7996 44.4151 12.9829C43.9906 12.1616 43.7784 11.1904 43.7784 10.0691C43.7784 8.97559 43.9906 8.01586 44.4151 7.18994C44.8396 6.36402 45.4372 5.72035 46.2077 5.25894C46.9829 4.79753 47.8919 4.56682 48.9346 4.56682C49.636 4.56682 50.2889 4.67987 50.8933 4.90596C51.5024 5.12744 52.033 5.46196 52.4852 5.90953C52.942 6.35709 53.2973 6.92001 53.551 7.59829C53.8048 8.27194 53.9317 9.06095 53.9317 9.96532V10.7751H44.955V8.94791H51.1563C51.1563 8.52341 51.0641 8.14736 50.8795 7.81976C50.6949 7.49216 50.4388 7.23608 50.1112 7.05152C49.7883 6.86234 49.4122 6.76775 48.9831 6.76775C48.5355 6.76775 48.1387 6.87157 47.7927 7.0792C47.4512 7.28222 47.1836 7.55676 46.9898 7.90282C46.796 8.24426 46.6968 8.62492 46.6922 9.04481V10.782C46.6922 11.308 46.7891 11.7625 46.9829 12.1455C47.1813 12.5284 47.4604 12.8238 47.8203 13.0314C48.1802 13.239 48.607 13.3428 49.1008 13.3428C49.4284 13.3428 49.7283 13.2967 50.0005 13.2044C50.2727 13.1121 50.5057 12.9737 50.6995 12.7891C50.8933 12.6046 51.041 12.3785 51.1425 12.1109L53.8694 12.2908C53.731 12.946 53.4472 13.5182 53.0181 14.0073C52.5936 14.4917 52.0445 14.8701 51.3709 15.1423C50.7018 15.41 49.929 15.5438 49.0523 15.5438Z" fill="#263238"/>
<path d="M58.1294 4.70525L60.0811 8.4219L62.0814 4.70525H65.1059L62.026 10.0207L65.189 15.3361H62.1783L60.0811 11.661L58.0186 15.3361H54.9733L58.1294 10.0207L55.0841 4.70525H58.1294Z" fill="#263238"/>
<path d="M71.2796 15.5438C70.1906 15.5438 69.254 15.3131 68.4696 14.8516C67.6898 14.3856 67.09 13.7396 66.6701 12.9137C66.2548 12.0878 66.0472 11.1373 66.0472 10.0622C66.0472 8.97329 66.2571 8.01817 66.677 7.19686C67.1015 6.37094 67.7036 5.72727 68.4834 5.26586C69.2632 4.79984 70.1906 4.56682 71.2657 4.56682C72.1932 4.56682 73.0052 4.73524 73.702 5.07207C74.3987 5.4089 74.9501 5.88184 75.3561 6.4909C75.7622 7.09996 75.9859 7.81515 76.0275 8.63646H73.2452C73.1667 8.10584 72.9591 7.67903 72.6223 7.35605C72.29 7.02845 71.854 6.86465 71.3142 6.86465C70.8574 6.86465 70.4583 6.98923 70.1168 7.23839C69.78 7.48293 69.517 7.84053 69.3278 8.31116C69.1386 8.7818 69.044 9.35164 69.044 10.0207C69.044 10.699 69.1363 11.2757 69.3209 11.751C69.5101 12.2262 69.7754 12.5884 70.1168 12.8376C70.4583 13.0868 70.8574 13.2113 71.3142 13.2113C71.651 13.2113 71.9532 13.1421 72.2208 13.0037C72.4931 12.8653 72.7169 12.6646 72.8922 12.4016C73.0721 12.1339 73.1898 11.8133 73.2452 11.4395H76.0275C75.9813 12.2516 75.7598 12.9668 75.363 13.5851C74.9708 14.1988 74.4287 14.6786 73.7366 15.0247C73.0445 15.3707 72.2255 15.5438 71.2796 15.5438Z" fill="#263238"/>
<path d="M82.76 15.5438C81.6665 15.5438 80.7252 15.3223 79.9362 14.8793C79.1518 14.4318 78.5473 13.7996 78.1228 12.9829C77.6983 12.1616 77.4861 11.1904 77.4861 10.0691C77.4861 8.97559 77.6983 8.01586 78.1228 7.18994C78.5473 6.36402 79.1449 5.72035 79.9154 5.25894C80.6906 4.79753 81.5996 4.56682 82.6423 4.56682C83.3437 4.56682 83.9966 4.67987 84.601 4.90596C85.2101 5.12744 85.7407 5.46196 86.1929 5.90953C86.6497 6.35709 87.005 6.92001 87.2588 7.59829C87.5125 8.27194 87.6394 9.06095 87.6394 9.96532V10.7751H78.6627V8.94791H84.864C84.864 8.52341 84.7718 8.14736 84.5872 7.81976C84.4026 7.49216 84.1465 7.23608 83.8189 7.05152C83.496 6.86234 83.1199 6.76775 82.6908 6.76775C82.2432 6.76775 81.8464 6.87157 81.5004 7.0792C81.1589 7.28222 80.8913 7.55676 80.6975 7.90282C80.5037 8.24426 80.4045 8.62492 80.3999 9.04481V10.782C80.3999 11.308 80.4968 11.7625 80.6906 12.1455C80.889 12.5284 81.1681 12.8238 81.528 13.0314C81.8879 13.239 82.3147 13.3428 82.8085 13.3428C83.1361 13.3428 83.436 13.2967 83.7082 13.2044C83.9804 13.1121 84.2134 12.9737 84.4072 12.7891C84.601 12.6046 84.7487 12.3785 84.8502 12.1109L87.5771 12.2908C87.4387 12.946 87.1549 13.5182 86.7258 14.0073C86.3013 14.4917 85.7523 14.8701 85.0786 15.1423C84.4095 15.41 83.6367 15.5438 82.76 15.5438Z" fill="#263238"/>
<path d="M92.5119 9.19015V15.3361H89.5635V4.70525H92.3735V6.58088H92.4981C92.7334 5.96259 93.1279 5.47349 93.6816 5.11359C94.2353 4.74908 94.9066 4.56682 95.6956 4.56682C96.4339 4.56682 97.0776 4.72832 97.6266 5.05131C98.1757 5.37429 98.6025 5.8357 98.907 6.43553C99.2116 7.03075 99.3638 7.74132 99.3638 8.56725V15.3361H96.4154V9.09325C96.42 8.44267 96.2539 7.93512 95.9171 7.5706C95.5803 7.20147 95.1166 7.01691 94.526 7.01691C94.1291 7.01691 93.7785 7.10227 93.4739 7.27299C93.174 7.44371 92.9387 7.69288 92.768 8.02048C92.6019 8.34346 92.5165 8.73335 92.5119 9.19015Z" fill="#263238"/>
<path d="M107.342 4.70525V6.92001H100.94V4.70525H107.342ZM102.394 2.15827H105.342V12.0693C105.342 12.3416 105.383 12.5538 105.467 12.7061C105.55 12.8537 105.665 12.9576 105.813 13.0175C105.965 13.0775 106.14 13.1075 106.339 13.1075C106.477 13.1075 106.615 13.096 106.754 13.0729C106.892 13.0452 106.998 13.0245 107.072 13.0106L107.536 15.2046C107.388 15.2508 107.181 15.3038 106.913 15.3638C106.645 15.4284 106.32 15.4676 105.937 15.4815C105.227 15.5092 104.604 15.4146 104.068 15.1977C103.538 14.9808 103.125 14.644 102.83 14.1872C102.534 13.7304 102.389 13.1537 102.394 12.4569V2.15827Z" fill="#263238"/>
</svg>
